<svg xmlns="http://www.w3.org/2000/svg" viewBox="0 0 1024 1024" fill="currentColor">
<path d="
M507.930725,541.277222 
	C479.279266,541.274780 451.114166,541.188843 422.950592,541.356567 
	C418.565613,541.382629 415.955658,540.087036 413.873169,536.100281 
	C408.861908,526.506836 403.279175,517.213745 398.115387,507.697205 
	C396.512573,504.743286 394.775330,504.498383 391.650848,505.313751 
	C378.365631,508.780731 369.132904,517.723633 360.462158,527.550659 
	C358.918915,529.299744 357.536713,531.274963 355.723541,532.688171 
	C344.345398,541.556580 339.052856,553.621521 336.243652,567.404541 
	C334.286957,577.004761 331.236176,586.389954 328.487244,595.816711 
	C327.462524,599.330688 327.536469,602.572876 328.805054,606.004578 
	C333.770447,619.436523 338.662262,632.896667 343.435425,646.397888 
	C344.723175,650.040405 346.809082,652.682373 350.131592,654.699829 
	C360.240997,660.838379 370.425323,666.890076 380.181427,673.559326 
	C385.317352,677.070190 390.320068,677.649902 396.142792,676.570190 
	C406.119385,674.720215 416.160736,673.213440 426.187836,671.645569 
	C428.647980,671.260864 430.585327,670.181885 432.065308,668.237732 
	C437.111084,661.609375 442.128876,654.959717 447.190735,648.343628 
	C448.374481,646.796387 448.813568,645.095947 448.668640,643.197571 
	C448.440613,640.210388 447.773956,637.179932 448.064056,634.243958 
	C449.060455,624.160339 445.586456,616.326355 438.713928,608.766113 
	C431.489746,600.818970 414.414886,596.541382 404.198944,603.706665 
	C396.305817,609.242798 395.337769,621.134277 402.006561,628.941040 
	C404.098145,631.389465 407.079620,633.090759 408.765045,636.131836 
	C396.332397,640.602112 385.517395,633.055115 383.541321,620.233154 
	C381.835968,609.167603 387.836456,601.489014 393.250671,593.420166 
	C394.931396,590.915405 398.642334,591.016113 401.242767,589.601013 
	C411.530731,584.002197 421.548309,584.809265 432.338226,588.879517 
	C439.797028,591.693298 446.333435,594.714783 450.417603,601.779114 
	C450.830658,602.493713 451.316528,603.247009 451.956299,603.737610 
	C461.579041,611.117065 461.973206,621.770813 462.257538,632.488525 
	C462.381104,637.144287 462.073334,641.822632 463.032318,646.440125 
	C463.596283,649.155579 462.183563,651.278015 460.668518,653.304321 
	C455.581268,660.108398 450.668274,667.057129 445.286896,673.621094 
	C442.574646,676.929443 442.480377,679.585754 444.927917,682.879822 
	C446.888245,685.518188 447.789703,688.888977 450.263153,691.054626 
	C451.681549,691.241455 452.219788,690.301270 452.784241,689.522949 
	C459.924103,679.677124 467.081512,669.843567 474.148193,659.945374 
	C477.625977,655.074036 475.559357,649.558350 475.410675,644.376892 
	C475.153076,635.401672 474.141449,626.450684 473.693481,617.477173 
	C473.500916,613.620239 472.373810,610.405457 469.785645,607.517517 
	C464.003845,601.066040 458.215210,594.608643 452.737152,587.902222 
	C450.042175,584.602966 446.924591,582.550171 442.800079,581.845520 
	C441.819672,581.678040 440.862274,581.367493 439.900513,581.100464 
	C415.745636,574.394958 415.760223,574.429199 392.614807,584.075134 
	C389.983917,585.171631 388.204529,586.753418 386.863586,589.237183 
	C383.619965,595.245422 380.210419,601.165466 376.788727,607.075317 
	C375.731903,608.900574 375.414459,610.623779 375.843750,612.763977 
	C376.856720,617.814270 377.596741,622.922546 378.330627,628.024048 
	C378.635895,630.145996 379.622742,631.754761 381.207581,633.096558 
	C382.732544,634.387634 384.493225,635.502563 385.701508,637.046204 
	C389.420868,641.797607 394.134033,643.428650 400.134094,644.421265 
	C408.515442,645.807922 414.412933,642.709534 419.856659,637.456604 
	C425.834229,631.688477 422.655396,620.456360 413.932892,615.684875 
	C412.091797,614.677795 409.694366,614.562500 408.472900,612.480652 
	C414.623199,606.969971 425.893219,607.511658 430.893585,613.750854 
	C434.498108,618.248413 437.060120,623.249756 436.268494,629.368286 
	C435.798828,632.998169 435.520325,636.652527 435.143219,640.294617 
	C434.945801,642.201233 434.141876,643.803162 432.653595,645.034607 
	C427.391785,649.388062 422.082550,653.670227 416.372772,657.446899 
	C413.185760,659.554993 409.746368,659.428772 406.249176,659.090393 
	C400.616913,658.545471 394.994080,657.903015 389.368042,657.294495 
	C388.706512,657.222900 387.853546,657.339172 387.420044,656.974915 
	C378.796326,649.727295 368.031158,644.217285 364.933533,632.202759 
	C363.239441,625.631958 362.831970,618.733704 361.763123,611.995911 
	C361.084381,607.717163 361.781525,603.912598 364.129761,600.115601 
	C368.683228,592.752869 372.933472,585.194214 377.073242,577.588196 
	C378.656403,574.679504 381.006927,573.252136 383.922485,572.228210 
	C393.034821,569.028137 402.184113,565.918030 411.192841,562.445496 
	C414.977020,560.986816 418.505096,560.775330 422.352814,561.859314 
	C432.445587,564.702393 442.570831,567.433228 452.710297,570.105774 
	C455.903992,570.947510 458.379700,572.572327 460.511627,575.117798 
	C467.999207,584.057556 475.611359,592.893494 483.221130,601.730225 
	C485.333374,604.183044 487.132477,606.732361 487.161194,610.124756 
	C487.292450,625.627197 489.250580,641.002563 490.432465,656.430725 
	C490.665192,659.468811 489.884918,661.891968 488.131104,664.306458 
	C477.458771,678.998596 466.829315,693.722473 456.294739,708.513489 
	C454.663208,710.804260 452.476105,711.645813 450.001953,712.088318 
	C427.225677,716.162231 404.671753,721.305298 382.063477,726.185669 
	C379.310577,726.779846 376.928528,726.376648 374.466553,724.877014 
	C353.267517,711.964111 332.028809,699.115845 310.747467,686.339111 
	C307.746948,684.537781 305.635162,682.210205 304.258087,679.034241 
	C293.921844,655.196228 283.612976,631.345886 273.130432,607.572144 
	C271.083008,602.928711 272.026367,598.480774 272.653870,593.871765 
	C276.286591,567.189331 279.932892,540.508362 283.400513,513.804321 
	C284.006042,509.141327 286.269867,505.348022 288.361786,501.391296 
	C298.560303,482.101379 309.358307,463.138275 319.601654,443.866730 
	C326.531830,430.828583 334.930634,418.428223 343.882660,406.663361 
	C348.922180,400.040375 356.383636,395.246857 362.812592,389.696991 
	C380.974854,374.018341 399.249786,358.468781 417.293701,342.655426 
	C422.209045,338.347717 428.220795,338.970154 433.781891,338.017090 
	C463.125519,332.988159 492.542847,328.390503 521.913391,323.515411 
	C525.033936,322.997467 527.735535,323.415741 530.627808,324.538727 
	C553.603638,333.459412 576.622253,342.269714 599.633972,351.097839 
	C600.998474,351.621338 602.359009,352.363800 604.188599,351.759216 
	C604.188599,334.575989 604.188599,317.353546 604.188599,300.185913 
	C606.039551,299.379364 607.144043,300.644348 608.396118,301.367737 
	C628.157715,312.784821 647.892273,324.248688 667.682373,335.616028 
	C677.801758,341.428528 689.235718,343.515656 700.335144,346.293793 
	C706.653259,347.875214 710.782166,350.896515 714.216248,356.385742 
	C726.233459,375.594513 738.647766,394.556519 751.054565,413.518433 
	C753.441101,417.165924 753.443726,420.478577 752.715698,424.749451 
	C750.526184,437.595123 743.801147,448.228546 737.557007,459.171692 
	C736.339355,461.305756 734.730713,462.682434 732.358276,463.500702 
	C707.330688,472.132935 682.323547,480.824799 657.333923,489.566193 
	C654.625244,490.513702 652.160889,490.268555 649.580566,489.236786 
	C639.374573,485.155701 629.083801,481.279694 618.951538,477.024933 
	C615.106201,475.410156 611.339722,474.772034 607.286072,475.374969 
	C597.905701,476.770233 588.515198,478.101929 579.147888,479.579987 
	C574.377136,480.332794 573.483704,482.481720 576.084778,486.462524 
	C576.812866,487.576843 577.895264,488.513000 578.408875,489.705811 
	C583.344482,501.169464 592.160950,504.768219 603.991821,502.691345 
	C613.359131,501.046906 620.275452,504.329559 626.322205,511.988007 
	C633.211548,520.713501 641.520508,528.318115 649.209595,536.412537 
	C650.225342,537.481873 651.498230,538.390930 651.582520,540.139465 
	C650.465210,541.924072 648.620483,541.258301 647.085205,541.260681 
	C622.587097,541.297974 598.088623,541.217468 573.591003,541.328003 
	C569.905029,541.344604 567.393127,540.032654 564.989563,537.326172 
	C548.837280,519.137817 532.510742,501.104156 516.358093,482.916138 
	C513.753174,479.982971 510.762115,481.158905 508.023010,481.586792 
	C497.997772,483.152771 488.027649,485.071320 478.035797,486.851929 
	C477.053101,487.027039 476.056488,487.339142 475.079163,487.296173 
	C464.932800,486.849915 460.739380,494.001282 456.456909,501.622009 
	C459.961914,503.569336 463.590210,502.986542 466.821716,502.553802 
	C477.976593,501.060028 486.393463,504.404236 493.489655,513.559692 
	C499.986023,521.941162 508.066528,529.093811 515.434265,536.802002 
	C516.333008,537.742249 517.473450,538.571411 517.405029,540.503235 
	C514.612915,542.027832 511.427002,540.976624 507.930725,541.277222 
M440.067078,367.515717 
	C454.783722,400.476929 469.537811,433.421600 484.156982,466.425964 
	C485.561829,469.597504 487.120270,471.335999 490.842773,470.641266 
	C498.354340,469.239380 505.886261,467.905762 513.453613,466.861816 
	C516.907288,466.385376 517.769531,464.668976 517.789490,461.516907 
	C518.039429,422.075897 518.330505,382.634949 518.735229,343.195282 
	C518.777466,339.080902 517.583374,338.137634 513.462891,338.855011 
	C493.978394,342.247192 474.435638,345.304260 454.915100,348.489868 
	C447.950165,349.626495 440.989471,350.788849 433.832001,351.971649 
	C435.169159,357.617981 437.917358,362.042969 440.067078,367.515717 
M619.110901,382.499786 
	C619.182251,397.152039 619.478638,411.808563 619.203369,426.454285 
	C619.106445,431.610931 620.716003,432.943268 625.725159,432.816772 
	C660.167297,431.946838 694.617004,431.373444 729.062561,430.628571 
	C731.872681,430.567780 735.316223,431.743774 736.932739,428.003235 
	C738.559814,424.238251 739.256287,420.816010 736.576294,416.793152 
	C726.241577,401.279449 715.946777,385.715302 706.379333,369.725830 
	C702.526306,363.286407 697.711853,360.031677 690.657593,358.242004 
	C680.075378,355.557404 669.257874,353.460358 659.661743,347.571777 
	C647.323792,340.000671 634.701050,332.893005 622.179626,325.622559 
	C621.120667,325.007721 620.155212,323.730103 618.424805,324.735779 
	C617.847961,343.601013 618.848389,362.547516 619.110901,382.499786 
M342.182465,454.345062 
	C350.926300,465.681000 359.652161,477.030914 368.419220,488.348907 
	C376.597992,498.907471 373.109100,497.088684 385.155243,493.204834 
	C389.350372,491.852325 389.488861,489.837708 387.967163,486.163666 
	C383.319733,474.943115 378.847076,463.643097 374.613495,452.259796 
	C368.363831,435.455627 379.784546,420.985107 397.728516,422.888672 
	C407.811249,423.958282 417.842896,425.543365 427.937683,426.449219 
	C432.049500,426.818207 434.570618,428.579803 436.839539,431.806549 
	C446.126740,445.013947 455.615509,458.079407 464.982147,471.231293 
	C466.634979,473.552002 468.149170,475.730225 471.546844,472.861603 
	C454.643616,435.034180 437.733582,397.191467 420.641113,358.940552 
	C418.913971,360.232727 417.959625,360.861145 417.101654,361.601257 
	C402.109161,374.534515 387.115631,387.466614 372.150146,400.431091 
	C363.654572,407.790741 353.837280,413.798492 348.549042,424.404663 
	C346.555573,428.402893 343.810547,432.033722 341.330078,435.780334 
	C335.162476,445.095947 335.144470,445.084015 342.182465,454.345062 
M585.584290,415.696899 
	C599.776794,424.634277 602.822571,440.054718 593.305176,453.973053 
	C591.321716,456.873688 588.646484,459.485931 587.885620,463.344513 
	C592.075500,464.354309 595.759949,462.687195 599.543884,462.569366 
	C603.873840,462.434601 605.911865,460.616058 605.707458,455.725525 
	C604.574158,428.611023 604.548218,401.471619 604.821594,374.340729 
	C604.871155,369.425232 603.077026,367.238403 598.757446,365.606445 
	C578.057678,357.785889 557.448853,349.724731 536.801025,341.766571 
	C535.598816,341.303162 534.408081,340.539215 532.552490,341.324768 
	C532.552490,376.974701 532.552490,412.783875 532.552490,448.667175 
	C534.673096,448.499725 535.195435,446.918396 536.044434,445.789398 
	C541.446777,438.605316 546.829041,431.405823 552.169250,424.175385 
	C560.910645,412.339966 571.311646,409.513000 585.584290,415.696899 
M413.545197,506.991119 
	C416.609283,512.161926 419.673370,517.332764 423.159546,523.215881 
	C433.404480,508.828186 442.823761,495.536072 452.333374,482.308899 
	C453.879028,480.158966 452.918671,478.646362 451.717407,476.949036 
	C443.926453,465.940887 436.119049,454.943939 428.410400,443.878296 
	C426.779053,441.536560 424.825836,439.990906 421.972321,439.712250 
	C412.704346,438.807373 403.449066,437.690216 394.160431,437.110016 
	C388.535278,436.758636 385.658875,440.884155 387.348267,446.352722 
	C388.425720,449.840363 389.891815,453.214447 391.290131,456.595367 
	C398.216888,473.343170 403.778931,490.693390 413.545197,506.991119 
M559.702759,487.750336 
	C556.627075,484.651428 557.434814,481.898224 559.773743,478.551178 
	C567.499146,467.496155 574.951965,456.248749 582.398499,445.001740 
	C586.321472,439.076660 585.197205,432.454376 579.869202,428.625916 
	C574.905396,425.059021 567.890198,425.923431 564.261414,430.876007 
	C553.729858,445.249237 543.354126,459.736542 532.864258,474.140442 
	C531.269226,476.330627 531.033325,478.058838 533.021057,480.274963 
	C546.364929,495.151855 559.598572,510.127594 572.865295,525.073669 
	C574.113770,526.480103 575.463867,527.596008 577.519226,527.592224 
	C591.622192,527.566589 605.725159,527.578796 620.927490,527.578796 
	C615.252747,520.310181 610.418884,514.968018 601.278259,516.259949 
	C595.725647,517.044739 589.964172,516.232788 584.308472,516.450256 
	C580.925903,516.580322 578.747986,515.374146 576.873413,512.575867 
	C571.406921,504.415466 565.710571,496.409119 559.702759,487.750336 
M343.412170,479.054504 
	C338.156311,472.966492 334.255280,465.732727 328.415771,460.380981 
	C326.425537,461.116425 325.894104,462.420776 325.270508,463.550934 
	C317.142365,478.281860 309.108185,493.064972 300.907593,507.755280 
	C299.279846,510.671204 300.701904,511.906708 302.846313,513.336182 
	C312.272797,519.620117 321.716400,525.882629 331.006134,532.364563 
	C333.701843,534.245544 335.402527,533.673584 337.422516,531.541382 
	C344.985413,523.558472 352.538727,515.560974 360.321136,507.794861 
	C362.695648,505.425293 362.359131,503.783447 360.541443,501.459900 
	C354.895813,494.242889 349.390137,486.916412 343.412170,479.054504 
M720.536499,444.369049 
	C687.124207,445.874908 653.683655,446.374084 619.381592,446.498291 
	C619.381592,450.439514 619.614014,453.744507 619.322449,457.002625 
	C618.961914,461.032806 620.736084,463.030853 624.387329,464.382843 
	C632.505981,467.389069 640.578186,470.552521 648.511353,474.013885 
	C652.169434,475.609955 655.427490,475.508179 659.068054,474.225647 
	C680.427673,466.700928 701.808350,459.234253 723.238525,451.913605 
	C726.944519,450.647644 728.488037,448.418274 728.671936,444.363739 
	C726.068298,444.363739 723.756226,444.363739 720.536499,444.369049 
M313.967499,537.578125 
	C308.372345,533.872498 302.777191,530.166809 296.831299,526.228882 
	C294.865723,532.060181 294.656647,537.216370 293.955811,542.286621 
	C291.795410,557.916016 289.646332,573.547302 287.380280,589.161560 
	C286.786865,593.250244 288.031128,594.986023 292.370850,594.687073 
	C298.505646,594.264343 304.666870,594.160034 310.818909,594.081482 
	C313.808746,594.043335 315.230011,592.777161 315.961823,589.850342 
	C318.299530,580.501038 321.072815,571.258789 323.316742,561.888672 
	C324.471313,557.067444 327.834930,552.049438 326.308502,547.486572 
	C324.694946,542.663452 318.453247,541.289185 313.967499,537.578125 
M304.171112,644.433289 
	C307.675354,652.071594 310.382599,660.088196 314.869202,668.050293 
	C320.096466,663.569763 324.875000,659.523071 329.589966,655.403564 
	C331.082367,654.099731 330.694641,652.453125 330.110931,650.791443 
	C325.537201,637.771179 321.010284,624.734375 316.422089,611.719238 
	C315.873932,610.164368 315.219452,608.432495 313.145508,608.420227 
	C305.411102,608.374512 297.676239,608.401978 288.906830,608.401978 
	C294.193756,620.879150 299.035034,632.304688 304.171112,644.433289 
M332.826752,683.634094 
	C346.458771,691.843567 360.090790,700.053040 374.107178,708.494019 
	C376.108185,702.835266 376.643677,697.566650 377.790375,692.442810 
	C378.396759,689.733337 377.435822,688.090149 375.171906,686.682007 
	C364.438110,680.005981 353.761353,673.238342 343.069214,666.495422 
	C341.604218,665.571533 340.116943,664.756714 338.512024,666.112610 
	C333.891327,670.016296 329.300171,673.955017 324.213928,678.292236 
	C327.448364,680.296631 329.831329,681.773376 332.826752,683.634094 
M424.270538,686.194031 
	C414.893616,687.610901 405.514130,689.011353 396.141541,690.456421 
	C393.907074,690.800964 391.909180,691.552856 391.444305,694.190430 
	C390.529633,699.379944 389.604553,704.567688 388.553436,710.490662 
	C405.592682,706.888733 421.899933,703.441589 438.932892,699.841003 
	C436.610077,695.787476 434.613678,692.561584 432.877258,689.201294 
	C431.123810,685.808105 428.643707,684.712463 424.270538,686.194031 
M468.093109,516.396973 
	C463.276245,516.381104 458.459381,516.361572 453.642517,516.350220 
	C444.287140,516.328064 442.265137,517.745667 438.613525,527.333679 
	C454.126495,528.081177 469.362335,526.779114 485.475983,526.981384 
	C480.967072,520.305725 476.937164,515.175659 468.093109,516.396973 
z"/>
<path d="
M656.230347,379.414368 
	C666.239502,365.317657 683.773926,362.412933 696.803711,372.420288 
	C709.136169,381.892090 710.871948,399.882721 700.620911,411.983582 
	C691.741333,422.465515 675.516724,424.473999 663.895447,416.529877 
	C652.043274,408.427948 648.861633,393.559692 656.230347,379.414368 
M691.058289,386.558289 
	C689.430298,384.105225 687.128601,382.522095 684.417236,381.510254 
	C677.138062,378.793823 669.080322,382.609436 666.705566,389.872528 
	C664.196228,397.547333 668.611023,405.097565 676.681946,407.054535 
	C682.128540,408.375183 686.641907,406.656494 690.084229,402.546814 
	C694.001770,397.869873 694.267883,392.597656 691.058289,386.558289 
z"/>
<path d="
M686.033813,391.203003 
	C687.984070,396.036591 686.140625,399.209351 682.100220,400.813354 
	C678.729309,402.151550 675.368225,401.294403 673.554077,397.758392 
	C671.754517,394.250519 672.213745,390.875000 675.524536,388.432434 
	C678.884766,385.953491 682.348694,386.863037 686.033813,391.203003 
z"/>
</svg>
